<svg xmlns="http://www.w3.org/2000/svg" width="24" height="24"><g class="icon_svg-fill_as_stroke" fill="#666"><path class="st0" d="M6.71 8.288c-1.244 0-2.255-1.012-2.255-2.255S5.467 3.777 6.71 3.777s2.255 1.012 2.255 2.255S7.954 8.288 6.71 8.288zm0-3.31a1.056 1.056 0 1 0 .002 2.112 1.056 1.056 0 0 0-.002-2.112z"/><path class="st0" d="M20.269 23.073H3.731a2.808 2.808 0 0 1-2.805-2.805V3.731A2.808 2.808 0 0 1 3.731.926h16.537a2.808 2.808 0 0 1 2.805 2.805v16.537a2.808 2.808 0 0 1-2.804 2.805zM3.731 2.126c-.885 0-1.605.72-1.605 1.605v16.537c0 .885.72 1.605 1.605 1.605h16.537c.885 0 1.605-.721 1.605-1.605V3.731c0-.885-.721-1.605-1.605-1.605H3.731z"/><path class="st0" d="M19.456 6.364h-7.204a.6.6 0 1 1 0-1.2h7.204a.6.6 0 0 1 0 1.2zM19.456 14.892h-7.204a.6.6 0 1 1 0-1.2h7.204a.6.6 0 0 1 0 1.2zM19.456 19.155h-7.204a.6.6 0 1 1 0-1.2h7.204a.6.6 0 0 1 0 1.2zM19.456 10.628h-7.204a.6.6 0 1 1 0-1.2h7.204a.6.6 0 0 1 0 1.2zM8.495 13.799h-3.57a.6.6 0 0 1-.52-.9L6.19 9.808c.214-.372.825-.372 1.039 0l1.785 3.091a.6.6 0 0 1-.519.9zm-2.53-1.2h1.491l-.746-1.291-.745 1.291zM8.885 19.949h-4.35V15.6h4.35v4.349zm-3.15-1.199h1.95V16.8h-1.95v1.95z"/></g></svg>